<?xml version="1.0" encoding="UTF-8"?>
<svg width="33px" height="20px" viewBox="0 0 33 20" version="1.1" xmlns="http://www.w3.org/2000/svg" xmlns:xlink="http://www.w3.org/1999/xlink">
    <!-- Generator: Sketch 51.2 (57519) - http://www.bohemiancoding.com/sketch -->
    <title>download</title>
    <desc>Created with Sketch.</desc>
    <defs></defs>
    <g id="fields---Brazil-(en)" stroke="none" stroke-width="1" fill="none" fill-rule="evenodd">
        <g id="Group-8" transform="translate(-324.000000, -21.000000)">
            <g id="Group-4" transform="translate(26.000000, 21.000000)">
                <g id="download" transform="translate(298.000000, 0.000000)">
                    <path d="M2.1,0 L30.5,0 C31.6,0 32.6,0.9 32.6,1.9 L32.6,17.8 C32.6,18.8 31.7,19.7 30.5,19.7 L2.1,19.7 C1,19.7 0,18.8 0,17.8 L0,1.9 C0,0.9 0.9,0 2.1,0 Z" id="Shape" fill="#099DD9"></path>
                    <g id="Group" transform="translate(0.000000, 5.000000)" fill-rule="nonzero">
                        <polygon id="Shape" fill="#FFFFFF" points="7.9 8.5 7.2 7.1 5.4 7.1 4.8 8.5 0.9 8.5 4.9 0.6 7.7 0.6 11.8 8.5"></polygon>
                        <polygon id="Shape" fill="#FFFFFF" points="8.9 8.5 8.9 0.6 12.9 0.6 13.5 2.5 14.2 0.6 18.2 0.6 18.2 8.5"></polygon>
                        <polygon id="Shape" fill="#FFFFFF" points="16.7 8.5 16.7 0.6 24.3 0.6 24.3 3.6 24 3.6 24 5.5 24.4 5.5 24.4 8.5"></polygon>
                        <polygon id="Shape" fill="#FFFFFF" points="27.6 8.5 26.4 7 25.2 8.5 20.8 8.5 24.2 4.4 21 0.6 25.4 0.6 26.4 1.9 27.5 0.6 31.8 0.6 28.7 4.4 32.1 8.5"></polygon>
                        <polygon id="Shape" fill="#3089C0" points="17.7 7.5 17.7 1.6 23.3 1.6 23.3 2.6 19.2 2.6 19.2 3.9 23 3.9 23 4.9 19.2 4.9 19.2 6.5 23.4 6.5 23.4 7.5"></polygon>
                        <polygon id="Shape" fill="#3089C0" points="22.9 7.5 25.5 4.4 23.2 1.6 25 1.6 26.5 3.5 28 1.6 29.8 1.6 27.4 4.5 30 7.5 28.2 7.5 26.5 5.5 24.8 7.5"></polygon>
                        <path d="M10.1,7.5 L8.5,7.5 L7.8,6.2 L4.8,6.2 L4.2,7.5 L2.5,7.5 L5.5,1.6 L7.1,1.6 L10.1,7.5 Z M7.3,5.1 L6.3,3 L5.3,5.2 L7.3,5.2 L7.3,5.1 Z" id="Shape" fill="#099DD9"></path>
                        <polygon id="Shape" fill="#099DD9" points="9.9 7.5 9.9 1.6 12.2 1.6 13.6 5.6 15 1.6 17.3 1.6 17.3 7.5 15.9 7.5 15.9 2.8 14.4 7.4 12.9 7.4 11.4 2.8 11.4 7.4 9.9 7.4"></polygon>
                    </g>
                </g>
            </g>
        </g>
    </g>
</svg>