<?xml version="1.0" encoding="UTF-8"?>
<svg width="39px" height="8px" viewBox="0 0 39 8" version="1.1" xmlns="http://www.w3.org/2000/svg" xmlns:xlink="http://www.w3.org/1999/xlink">
    <!-- Generator: Sketch 51.2 (57519) - http://www.bohemiancoding.com/sketch -->
    <title>Udemy designs</title>
    <desc>Created with Sketch.</desc>
    <defs></defs>
    <g id="fields---Brazil-(en)" stroke="none" stroke-width="1" fill="none" fill-rule="evenodd">
        <g id="Group-8" transform="translate(-365.000000, -27.000000)">
            <rect id="Background" stroke="#DEDFE0" fill="#F8F8F9" x="0.5" y="0.5" width="706" height="416" rx="4"></rect>
            <g id="Group-4" transform="translate(26.000000, 21.000000)">
                <g id="download" transform="translate(339.000000, 6.000000)">
                    <path d="M2.1,5.8 C2.1,5.8 4.6,6.1 4.6,3.8 C4.6,1.6 2.1,1.8 2.1,1.8 L2.1,5.8 Z M0.9,0.8 L2.9,0.8 C4.1,0.8 5.8,1.9 5.8,3.8 C5.8,5.7 4.1,6.8 2.9,6.8 L0.9,6.8 L0.9,0.8 Z" id="Shape" fill="#000000" fill-rule="nonzero"></path>
                    <rect id="Rectangle-path" fill="#000000" fill-rule="nonzero" x="6.3" y="0.8" width="1.2" height="6.1"></rect>
                    <path d="M11.3,2.2 C11.3,2.2 10.9,1.7 10.4,1.7 C9.9,1.7 9.6,2.1 9.6,2.3 C9.6,2.6 9.6,2.7 10.4,3 C11.2,3.3 12.3,3.5 12.3,4.9 C12.3,6.2 11.2,6.9 10.3,6.9 C8.8,6.9 8.1,5.8 8.1,5.8 L8.9,5 C8.9,5 9.4,5.8 10.2,5.8 C11,5.8 11.1,5.2 11.1,5 C11.1,4.7 10.9,4.4 10.4,4.2 C9.9,4 8.5,3.8 8.5,2.5 C8.5,1.3 9.4,0.7 10.4,0.7 C11.3,0.7 12.1,1.4 12.1,1.4 L11.3,2.2 Z" id="Shape" fill="#000000" fill-rule="nonzero"></path>
                    <path d="M17.1,2.5 C16.7,2.1 16.2,1.8 15.6,1.8 C14.5,1.8 13.5,2.7 13.5,3.9 C13.5,5 14.4,6 15.6,6 C16.2,6 16.7,5.7 17.1,5.3 L17.1,6.7 C16.7,6.9 16.2,7.1 15.6,7.1 C13.8,7.1 12.4,5.7 12.4,3.9 C12.4,2.1 13.8,0.7 15.6,0.7 C16.1,0.7 16.6,0.8 17.1,1.1 L17.1,2.5 Z" id="Shape" fill="#000000" fill-rule="nonzero"></path>
                    <polygon id="Shape" fill="#000000" fill-rule="nonzero" points="23.7 0.8 25 0.8 26.7 4.8 28.3 0.8 29.6 0.8 27 7 26.3 7"></polygon>
                    <path d="M35.3,1.8 L35.3,3.6 L36,3.6 C36.5,3.6 36.8,3.1 36.8,2.8 L36.8,2.7 C36.8,2.3 36.5,1.9 36,1.9 L35.3,1.9 L35.3,1.8 Z M34.2,0.8 L36.2,0.8 C36.8,0.8 38.1,1.1 38.1,2.6 C38.1,4 36.8,4.3 36.8,4.3 L38.6,6.8 L37.1,6.8 L35.5,4.4 L35.4,4.4 L35.4,6.8 L34.2,6.8 L34.2,0.8 Z" id="Shape" fill="#000000" fill-rule="nonzero"></path>
                    <polygon id="Shape" fill="#000000" fill-rule="nonzero" points="33.3 3.2 33.3 4.3 31.2 4.3 31.2 5.8 33.4 5.8 33.4 6.9 30 6.9 30 0.8 33.4 0.8 33.4 1.9 31.2 1.9 31.2 3.2"></polygon>
                    <circle id="Oval" fill="#F16822" cx="20.8" cy="3.9" r="3.1"></circle>
                </g>
            </g>
        </g>
    </g>
</svg>