<?xml version="1.0" encoding="UTF-8"?>
<svg width="34px" height="20px" viewBox="0 0 34 20" version="1.1" xmlns="http://www.w3.org/2000/svg" xmlns:xlink="http://www.w3.org/1999/xlink">
    <!-- Generator: Sketch 51.2 (57519) - http://www.bohemiancoding.com/sketch -->
    <title>download</title>
    <desc>Created with Sketch.</desc>
    <defs></defs>
    <g id="fields---Brazil-(en)" stroke="none" stroke-width="1" fill="none" fill-rule="evenodd">
        <g id="Group-8" transform="translate(-277.000000, -21.000000)">
            <g id="Group-4" transform="translate(26.000000, 21.000000)">
                <g id="download" transform="translate(251.000000, 0.000000)">
                    <polygon id="Shape" fill="#FCB331" points="23.4 20 23.9 20 24.4 19.9 24.9 19.9 25.4 19.8 25.9 19.7 26.4 19.6 26.8 19.4 27.3 19.2 27.7 19 28.2 18.8 28.6 18.5 29 18.3 29.4 18 29.8 17.7 30.1 17.4 30.5 17.1 30.8 16.7 31.1 16.4 31.4 16 31.7 15.6 32 15.2 32.2 14.8 32.4 14.3 32.6 13.9 32.8 13.4 33 13 33.1 12.5 33.2 12 33.3 11.5 33.4 11 33.4 10.5 33.4 10 33.4 9.5 33.4 9 33.3 8.5 33.2 8 33.1 7.5 33 7 32.8 6.6 32.6 6.1 32.4 5.7 32.2 5.2 32 4.8 31.7 4.4 31.4 4 31.1 3.6 30.8 3.3 30.5 2.9 30.1 2.6 29.8 2.3 29.4 2 29 1.7 28.6 1.4 28.2 1.2 27.7 1 27.3 0.8 26.8 0.6 26.4 0.4 25.9 0.3 25.4 0.2 24.9 0.1 24.4 0.1 23.9 0 23.4 0 22.9 0 22.4 0.1 21.9 0.1 21.4 0.2 20.9 0.3 20.4 0.4 20 0.6 19.5 0.8 19.1 1 18.6 1.2 18.2 1.4 17.8 1.7 17.4 2 17 2.3 16.7 2.6 16.3 2.9 16 3.3 15.7 3.6 15.4 4 15.1 4.4 14.9 4.8 14.6 5.2 14.4 5.7 14.2 6.1 14 6.6 13.9 7 13.7 7.5 13.6 8 13.5 8.5 13.5 9 13.4 9.5 13.4 10 13.4 10.5 13.5 11 13.5 11.5 13.6 12 13.7 12.5 13.9 13 14 13.4 14.2 13.9 14.4 14.3 14.6 14.8 14.9 15.2 15.1 15.6 15.4 16 15.7 16.4 16 16.7 16.3 17.1 16.7 17.4 17 17.7 17.4 18 17.8 18.3 18.2 18.5 18.6 18.8 19.1 19 19.5 19.2 20 19.4 20.4 19.6 20.9 19.7 21.4 19.8 21.9 19.9 22.4 19.9 22.9 20 23.4 20"></polygon>
                    <polygon id="Shape" fill="#ED1B2E" points="10 20 10.5 20 11 19.9 11.5 19.9 12 19.8 12.5 19.7 13 19.6 13.5 19.4 13.9 19.2 14.3 19 14.8 18.8 15.2 18.5 15.6 18.3 16 18 16.4 17.7 16.7 17.4 17.1 17.1 17.4 16.7 17.7 16.4 18 16 18.3 15.6 18.6 15.2 18.8 14.8 19 14.3 19.2 13.9 19.4 13.4 19.6 13 19.7 12.5 19.8 12 19.9 11.5 19.9 11 20 10.5 20 10 20 9.5 19.9 9 19.9 8.5 19.8 8 19.7 7.5 19.6 7 19.4 6.6 19.2 6.1 19 5.7 18.8 5.2 18.6 4.8 18.3 4.4 18 4 17.7 3.6 17.4 3.3 17.1 2.9 16.7 2.6 16.4 2.3 16 2 15.6 1.7 15.2 1.4 14.8 1.2 14.3 1 13.9 0.8 13.5 0.6 13 0.4 12.5 0.3 12 0.2 11.5 0.1 11 0.1 10.5 0 10 0 9.5 0 9 0.1 8.5 0.1 8 0.2 7.5 0.3 7 0.4 6.6 0.6 6.1 0.8 5.7 1 5.2 1.2 4.8 1.4 4.4 1.7 4 2 3.6 2.3 3.3 2.6 2.9 2.9 2.6 3.3 2.3 3.6 2 4 1.7 4.4 1.5 4.8 1.2 5.2 1 5.7 0.8 6.1 0.6 6.6 0.4 7 0.3 7.5 0.2 8 0.1 8.5 0.1 9 0 9.5 0 10 0 10.5 0.1 11 0.1 11.5 0.2 12 0.3 12.5 0.4 13 0.6 13.4 0.8 13.9 1 14.3 1.2 14.8 1.5 15.2 1.7 15.6 2 16 2.3 16.4 2.6 16.7 2.9 17.1 3.3 17.4 3.6 17.7 4 18 4.4 18.3 4.8 18.5 5.2 18.8 5.7 19 6.1 19.2 6.6 19.4 7 19.6 7.5 19.7 8 19.8 8.5 19.9 9 19.9 9.5 20 10 20"></polygon>
                    <polygon id="Shape" fill="#FCB331" points="15.5 3.8 20.9 3.8 20.9 3.3 16 3.3 15.5 3.8"></polygon>
                    <polygon id="Shape" fill="#FCB331" points="14.7 5 20.9 5 20.9 4.5 15.1 4.5 14.7 5"></polygon>
                    <polygon id="Shape" fill="#FCB331" points="14.1 6.2 20.9 6.2 20.9 5.7 14.4 5.7 14.1 6.2"></polygon>
                    <polygon id="Shape" fill="#FCB331" points="13.7 7.5 20.9 7.5 20.9 6.9 13.9 6.9 13.7 7.5"></polygon>
                    <polygon id="Shape" fill="#FCB331" points="14 13.3 20.9 13.3 20.9 12.7 13.8 12.7 14 13.3"></polygon>
                    <polygon id="Shape" fill="#FCB331" points="14.5 14.5 20.9 14.5 20.9 14 14.2 14 14.5 14.5"></polygon>
                    <polygon id="Shape" fill="#FCB331" points="15.2 15.7 20.9 15.7 20.9 15.2 14.9 15.2 15.2 15.7"></polygon>
                    <polygon id="Shape" fill="#FCB331" points="16.2 16.9 20.9 16.9 20.9 16.4 15.7 16.4 16.2 16.9"></polygon>
                    <polygon id="Shape" fill="#FCB331" points="13.5 8.7 20.9 8.7 20.9 8.1 13.6 8.1 13.5 8.7"></polygon>
                    <polygon id="Shape" fill="#FCB331" points="18 12.1 20.8 12.1 20.8 11.5 18.1 11.5 18 12.1"></polygon>
                    <polygon id="Shape" fill="#FCB331" points="18.2 10.9 20.8 10.9 20.8 10.3 18.3 10.3 18.2 10.9"></polygon>
                    <polygon id="Shape" fill="#FCB331" points="13.3 10.3 14 10.3 14 10.9 13.3 10.9 13.3 10.3"></polygon>
                    <polygon id="Shape" fill="#FFFFFF" points="12 9.7 11.9 9.7 11.9 9.7 11.8 9.7 11.8 9.7 11.7 9.6 11.7 9.6 11.6 9.6 11.6 9.6 11.6 9.6 11.5 9.6 11.4 9.6 11.4 9.6 11.3 9.6 11.2 9.6 11.1 9.6 11 9.6 11 9.6 10.9 9.6 10.8 9.7 10.8 9.7 10.8 9.7 10.7 9.7 10.7 9.8 10.6 9.8 10.6 9.8 10.6 9.9 10.6 9.9 10.6 10 10.6 10 10.6 10 10.6 10.1 10.7 10.1 10.8 10.2 10.8 10.2 10.9 10.3 11 10.3 11.1 10.4 11.2 10.4 11.4 10.4 11.5 10.5 11.6 10.5 11.7 10.6 11.7 10.7 11.8 10.8 11.9 10.9 11.9 11.1 11.9 11.3 11.9 11.5 11.9 11.6 11.8 11.8 11.8 11.9 11.7 12 11.6 12.1 11.6 12.2 11.5 12.3 11.4 12.3 11.2 12.4 11.1 12.4 11 12.5 10.9 12.5 10.8 12.5 10.7 12.5 10.6 12.5 10.5 12.5 10.3 12.5 10.2 12.5 10.1 12.5 10 12.5 9.8 12.5 9.8 12.5 9.7 12.5 9.6 12.5 9.5 12.5 9.5 12.5 9.4 12.5 9.3 12.4 9.3 12.4 9.2 12.4 9.2 12.4 9.1 12.4 9.3 11.6 9.3 11.6 9.3 11.6 9.4 11.7 9.4 11.7 9.5 11.7 9.6 11.7 9.6 11.7 9.7 11.7 9.8 11.7 9.9 11.8 10 11.8 10.1 11.8 10.2 11.8 10.3 11.8 10.4 11.8 10.5 11.8 10.6 11.8 10.7 11.7 10.7 11.7 10.8 11.6 10.8 11.6 10.8 11.5 10.8 11.5 10.9 11.4 10.9 11.3 10.8 11.3 10.8 11.2 10.7 11.1 10.6 11.1 10.5 11 10.3 11 10.2 10.9 10.1 10.9 9.9 10.8 9.8 10.7 9.7 10.6 9.6 10.5 9.6 10.3 9.5 10.1 9.5 9.9 9.6 9.8 9.6 9.7 9.6 9.6 9.7 9.5 9.7 9.4 9.8 9.3 9.8 9.2 9.9 9.1 10 9 10.1 9 10.3 8.9 10.4 8.9 10.5 8.9 10.7 8.8 10.9 8.8 11.1 8.8 11.2 8.8 11.3 8.8 11.4 8.8 11.5 8.8 11.6 8.8 11.7 8.9 11.8 8.9 11.8 8.9 11.9 8.9 11.9 8.9 12 8.9 12 8.9 12 8.9 12.1 8.9 12.1 8.9 12.1 8.9 12 9.7"></polygon>
                    <polyline id="Shape" stroke="#FFFFFF" stroke-width="0.216" points="12 9.7 12 9.7 11.9 9.7 11.9 9.7 11.8 9.7 11.8 9.7 11.7 9.6 11.7 9.6 11.6 9.6 11.6 9.6 11.6 9.6 11.5 9.6 11.4 9.6 11.4 9.6 11.3 9.6 11.2 9.6 11.1 9.6 11 9.6 11 9.6 11 9.6 10.9 9.6 10.8 9.7 10.8 9.7 10.8 9.7 10.7 9.7 10.7 9.8 10.6 9.8 10.6 9.8 10.6 9.9 10.6 9.9 10.6 10 10.6 10 10.6 10 10.6 10.1 10.7 10.1 10.7 10.1 10.8 10.2 10.8 10.2 10.9 10.3 11 10.3 11.1 10.4 11.2 10.4 11.4 10.4 11.5 10.5 11.6 10.5 11.7 10.6 11.7 10.7 11.8 10.8 11.9 10.9 11.9 11.1 11.9 11.3 11.9 11.5 11.9 11.5 11.9 11.6 11.8 11.8 11.8 11.9 11.7 12 11.6 12.1 11.6 12.2 11.5 12.3 11.4 12.3 11.2 12.4 11.1 12.4 11 12.5 10.9 12.5 10.8 12.5 10.7 12.5 10.6 12.5 10.5 12.5 10.5 12.5 10.3 12.5 10.2 12.5 10.1 12.5 10 12.5 9.8 12.5 9.8 12.5 9.7 12.5 9.6 12.5 9.5 12.5 9.5 12.5 9.4 12.5 9.3 12.4 9.3 12.4 9.2 12.4 9.2 12.4 9.1 12.4 9.3 11.6 9.3 11.6 9.3 11.6 9.3 11.6 9.4 11.7 9.4 11.7 9.5 11.7 9.6 11.7 9.6 11.7 9.7 11.7 9.8 11.7 9.9 11.8 10 11.8 10.1 11.8 10.2 11.8 10.3 11.8 10.4 11.8 10.5 11.8 10.5 11.8 10.6 11.8 10.7 11.7 10.7 11.7 10.8 11.6 10.8 11.6 10.8 11.5 10.8 11.5 10.9 11.4 10.9 11.4 10.9 11.3 10.8 11.3 10.8 11.2 10.7 11.1 10.6 11.1 10.5 11 10.3 11 10.2 10.9 10.1 10.9 9.9 10.8 9.8 10.7 9.7 10.6 9.6 10.5 9.6 10.3 9.5 10.1 9.5 9.9 9.5 9.9 9.6 9.8 9.6 9.7 9.6 9.6 9.7 9.5 9.7 9.4 9.8 9.3 9.8 9.2 9.9 9.1 10 9 10.1 9 10.3 8.9 10.4 8.9 10.5 8.9 10.7 8.8 10.9 8.8 11.1 8.8 11.1 8.8 11.2 8.8 11.3 8.8 11.4 8.8 11.5 8.8 11.6 8.8 11.7 8.9 11.8 8.9 11.8 8.9 11.9 8.9 11.9 8.9 12 8.9 12 8.9 12 8.9 12.1 8.9 12.1 8.9 12.1 8.9 12 9.7"></polyline>
                    <polygon id="Shape" fill="#FFFFFF" points="12.8 8.1 13.7 8.1 13.6 8.9 14.1 8.9 14 9.7 13.4 9.6 13.1 11.5 13.1 11.6 13.1 11.7 13.1 11.7 13.2 11.7 13.2 11.8 13.3 11.8 13.4 11.8 13.4 11.8 13.5 11.8 13.6 11.8 13.7 11.8 13.7 11.8 13.7 11.7 13.8 11.7 13.8 11.7 13.8 11.7 13.7 12.4 13.7 12.4 13.6 12.4 13.6 12.4 13.6 12.4 13.6 12.4 13.5 12.4 13.5 12.4 13.5 12.5 13.4 12.5 13.4 12.5 13.4 12.5 13.3 12.5 13.3 12.5 13.2 12.5 13.2 12.5 13.1 12.5 12.9 12.5 12.7 12.5 12.6 12.5 12.5 12.5 12.4 12.4 12.3 12.4 12.3 12.4 12.2 12.3 12.2 12.3 12.1 12.2 12.1 12.2 12.1 12.1 12.1 12.1 12.1 12 12.1 11.9 12.1 11.8 12.1 11.8 12.8 8.1"></polygon>
                    <polyline id="Shape" stroke="#FFFFFF" stroke-width="0.216" points="12.8 8.1 13.7 8.1 13.6 8.9 14.1 8.9 14 9.7 13.4 9.6 13.1 11.5 13.1 11.5 13.1 11.6 13.1 11.7 13.1 11.7 13.2 11.7 13.2 11.8 13.3 11.8 13.4 11.8 13.4 11.8 13.4 11.8 13.5 11.8 13.6 11.8 13.7 11.8 13.7 11.8 13.7 11.7 13.8 11.7 13.8 11.7 13.8 11.7 13.7 12.4 13.7 12.4 13.7 12.4 13.6 12.4 13.6 12.4 13.6 12.4 13.6 12.4 13.5 12.4 13.5 12.4 13.5 12.5 13.4 12.5 13.4 12.5 13.4 12.5 13.3 12.5 13.3 12.5 13.2 12.5 13.2 12.5 13.1 12.5 12.9 12.5 12.9 12.5 12.7 12.5 12.6 12.5 12.5 12.5 12.4 12.4 12.3 12.4 12.3 12.4 12.2 12.3 12.2 12.3 12.1 12.2 12.1 12.2 12.1 12.1 12.1 12.1 12.1 12 12.1 11.9 12.1 11.8 12.1 11.8 12.8 8.1"></polyline>
                    <polygon id="Shape" fill="#FFFFFF" points="14.9 10.9 14.8 11 14.8 11.1 14.9 11.1 14.9 11.2 14.9 11.2 14.9 11.3 15 11.4 15 11.4 15 11.5 15.1 11.5 15.1 11.6 15.2 11.6 15.3 11.7 15.3 11.7 15.4 11.7 15.5 11.7 15.6 11.7 15.6 11.8 15.7 11.8 15.8 11.8 15.9 11.8 16 11.8 16.1 11.8 16.2 11.8 16.3 11.7 16.4 11.7 16.5 11.7 16.5 11.7 16.6 11.6 16.7 11.6 16.8 11.6 16.9 11.5 16.8 12.3 16.7 12.3 16.7 12.4 16.6 12.4 16.6 12.4 16.5 12.4 16.5 12.5 16.4 12.5 16.4 12.5 16.3 12.5 16.2 12.5 16.2 12.5 16.1 12.5 16 12.5 15.9 12.5 15.8 12.5 15.7 12.5 15.5 12.5 15.4 12.5 15.2 12.5 15 12.4 14.9 12.4 14.7 12.3 14.5 12.2 14.4 12.1 14.3 12 14.2 11.9 14.1 11.7 14 11.5 13.9 11.3 13.9 11.1 13.9 10.9 13.9 10.6 13.9 10.5 13.9 10.4 14 10.2 14 10.1 14 9.9 14.1 9.8 14.2 9.6 14.3 9.5 14.4 9.4 14.5 9.2 14.7 9.1 14.8 9 15 8.9 15.2 8.9 15.5 8.8 15.8 8.8 15.9 8.8 16 8.8 16.2 8.9 16.3 8.9 16.4 9 16.6 9 16.7 9.1 16.8 9.2 16.9 9.3 17 9.4 17.1 9.6 17.1 9.8 17.1 10 17.1 10.2 17.1 10.5 17.1 10.7 17 10.9 14.6 10.9 14.7 10.3 16.2 10.3 16.2 10.2 16.2 10.1 16.2 10 16.2 10 16.2 9.9 16.2 9.9 16.1 9.8 16.1 9.8 16 9.7 16 9.7 16 9.7 15.9 9.6 15.8 9.6 15.8 9.6 15.7 9.6 15.7 9.6 15.6 9.6 15.6 9.6 15.5 9.6 15.4 9.6 15.4 9.7 15.3 9.7 15.3 9.7 15.2 9.8 15.2 9.8 15.1 9.9 15.1 9.9 15.1 10 15.1 10 15 10.1 15 10.2 15 10.2 14.9 10.9"></polygon>
                    <polyline id="Shape" stroke="#FFFFFF" stroke-width="0.216" points="14.9 10.9 14.9 10.9 14.8 11 14.8 11.1 14.9 11.1 14.9 11.2 14.9 11.2 14.9 11.3 15 11.4 15 11.4 15 11.5 15.1 11.5 15.1 11.6 15.2 11.6 15.3 11.7 15.3 11.7 15.4 11.7 15.5 11.7 15.5 11.7 15.6 11.7 15.6 11.8 15.7 11.8 15.8 11.8 15.9 11.8 16 11.8 16.1 11.8 16.2 11.8 16.3 11.7 16.4 11.7 16.5 11.7 16.5 11.7 16.6 11.6 16.7 11.6 16.8 11.6 16.9 11.5 16.8 12.3 16.8 12.3 16.7 12.3 16.7 12.4 16.6 12.4 16.6 12.4 16.5 12.4 16.5 12.5 16.4 12.5 16.4 12.5 16.3 12.5 16.2 12.5 16.2 12.5 16.1 12.5 16 12.5 15.9 12.5 15.8 12.5 15.7 12.5 15.7 12.5 15.5 12.5 15.4 12.5 15.2 12.5 15 12.4 14.9 12.4 14.7 12.3 14.5 12.2 14.4 12.1 14.3 12 14.2 11.9 14.1 11.7 14 11.5 13.9 11.3 13.9 11.1 13.9 10.9 13.9 10.6 13.9 10.6 13.9 10.5 13.9 10.4 14 10.2 14 10.1 14 9.9 14.1 9.8 14.2 9.6 14.3 9.5 14.4 9.4 14.5 9.2 14.7 9.1 14.8 9 15 8.9 15.2 8.9 15.5 8.8 15.8 8.8 15.8 8.8 15.9 8.8 16 8.8 16.2 8.9 16.3 8.9 16.4 9 16.6 9 16.7 9.1 16.8 9.2 16.9 9.3 17 9.4 17.1 9.6 17.1 9.8 17.1 10 17.1 10.2 17.1 10.5 17.1 10.7 17 10.9 14.6 10.9 14.7 10.3 16.2 10.3 16.2 10.3 16.2 10.2 16.2 10.1 16.2 10 16.2 10 16.2 9.9 16.2 9.9 16.1 9.8 16.1 9.8 16 9.7 16 9.7 16 9.7 15.9 9.6 15.8 9.6 15.8 9.6 15.7 9.6 15.7 9.6 15.7 9.6 15.6 9.6 15.6 9.6 15.5 9.6 15.4 9.6 15.4 9.7 15.3 9.7 15.3 9.7 15.2 9.8 15.2 9.8 15.1 9.9 15.1 9.9 15.1 10 15.1 10 15 10.1 15 10.2 15 10.2 14.9 10.9"></polyline>
                    <polygon id="Shape" fill="#FFFFFF" points="22.9 9.1 22.9 9.1 22.8 9.1 22.8 9 22.7 9 22.7 9 22.6 9 22.6 8.9 22.5 8.9 22.4 8.9 22.4 8.9 22.3 8.9 22.2 8.9 22.1 8.9 22.1 8.9 22 8.9 21.9 8.9 21.8 8.9 21.7 8.9 21.6 8.9 21.5 8.9 21.5 8.9 21.4 9 21.3 9 21.2 9.1 21.1 9.1 21 9.2 20.9 9.3 20.8 9.5 20.7 9.6 20.7 9.8 20.6 10 20.6 10.2 20.5 10.3 20.5 10.4 20.5 10.5 20.5 10.7 20.5 10.8 20.6 10.9 20.6 11 20.6 11.1 20.7 11.2 20.7 11.3 20.8 11.3 20.9 11.4 21 11.5 21.1 11.5 21.2 11.6 21.3 11.6 21.4 11.6 21.4 11.6 21.5 11.6 21.5 11.6 21.6 11.6 21.7 11.6 21.8 11.6 21.9 11.6 22 11.6 22 11.6 22.1 11.6 22.2 11.6 22.3 11.5 22.4 11.5 22.4 11.4 22.5 11.4 22.4 12.3 22.3 12.3 22.3 12.3 22.3 12.3 22.3 12.3 22.2 12.4 22.2 12.4 22.1 12.4 22.1 12.4 22 12.5 21.9 12.5 21.8 12.5 21.7 12.5 21.5 12.5 21.4 12.5 21.2 12.5 21 12.5 20.9 12.5 20.7 12.4 20.6 12.4 20.4 12.3 20.3 12.2 20.1 12.1 20 12 19.9 11.9 19.8 11.7 19.7 11.6 19.6 11.4 19.5 11.2 19.5 10.9 19.5 10.7 19.5 10.4 19.5 10.2 19.5 10 19.6 9.9 19.6 9.8 19.6 9.6 19.7 9.5 19.7 9.4 19.8 9.3 19.8 9.2 19.9 9.1 19.9 9 20 8.9 20 8.8 20.1 8.7 20.2 8.6 20.2 8.6 20.3 8.5 20.4 8.4 20.4 8.4 20.5 8.3 20.6 8.2 20.7 8.2 20.8 8.2 20.9 8.1 21 8.1 21.1 8 21.2 8 21.3 8 21.4 8 21.5 8 21.7 7.9 21.8 7.9 21.9 7.9 22 7.9 22.1 7.9 22.2 8 22.3 8 22.4 8 22.5 8 22.6 8 22.7 8 22.7 8.1 22.8 8.1 22.9 8.1 22.9 8.1 23 8.1 23 8.1 23.1 8.2 23.1 8.2 22.9 9.1"></polygon>
                    <polyline id="Shape" stroke="#FFFFFF" stroke-width="0.216" points="22.9 9.1 22.9 9.1 22.9 9.1 22.8 9.1 22.8 9 22.7 9 22.7 9 22.6 9 22.6 8.9 22.5 8.9 22.4 8.9 22.4 8.9 22.3 8.9 22.2 8.9 22.1 8.9 22.1 8.9 22 8.9 21.9 8.9 21.9 8.9 21.8 8.9 21.7 8.9 21.6 8.9 21.5 8.9 21.5 8.9 21.4 9 21.3 9 21.2 9.1 21.1 9.1 21 9.2 20.9 9.3 20.8 9.5 20.7 9.6 20.7 9.8 20.6 10 20.6 10.2 20.6 10.2 20.5 10.3 20.5 10.4 20.5 10.5 20.5 10.7 20.5 10.8 20.6 10.9 20.6 11 20.6 11.1 20.7 11.2 20.7 11.3 20.8 11.3 20.9 11.4 21 11.5 21.1 11.5 21.2 11.6 21.3 11.6 21.3 11.6 21.4 11.6 21.4 11.6 21.5 11.6 21.5 11.6 21.6 11.6 21.7 11.6 21.8 11.6 21.9 11.6 22 11.6 22 11.6 22.1 11.6 22.2 11.6 22.3 11.5 22.4 11.5 22.4 11.4 22.5 11.4 22.4 12.3 22.4 12.3 22.3 12.3 22.3 12.3 22.3 12.3 22.3 12.3 22.2 12.4 22.2 12.4 22.1 12.4 22.1 12.4 22 12.5 21.9 12.5 21.8 12.5 21.7 12.5 21.5 12.5 21.4 12.5 21.2 12.5 21 12.5 21 12.5 20.9 12.5 20.7 12.4 20.6 12.4 20.4 12.3 20.3 12.2 20.1 12.1 20 12 19.9 11.9 19.8 11.7 19.7 11.6 19.6 11.4 19.5 11.2 19.5 10.9 19.5 10.7 19.5 10.4 19.5 10.2 19.5 10.2 19.5 10 19.6 9.9 19.6 9.8 19.6 9.6 19.7 9.5 19.7 9.4 19.8 9.3 19.8 9.2 19.9 9.1 19.9 9 20 8.9 20 8.8 20.1 8.7 20.2 8.6 20.2 8.6 20.3 8.5 20.4 8.4 20.4 8.4 20.5 8.3 20.6 8.2 20.7 8.2 20.8 8.2 20.9 8.1 21 8.1 21.1 8 21.2 8 21.3 8 21.4 8 21.5 8 21.7 7.9 21.8 7.9 21.9 7.9 21.9 7.9 22 7.9 22.1 7.9 22.2 8 22.3 8 22.4 8 22.5 8 22.6 8 22.7 8 22.7 8.1 22.8 8.1 22.9 8.1 22.9 8.1 23 8.1 23 8.1 23.1 8.2 23.1 8.2 22.9 9.1"></polyline>
                    <polygon id="Shape" fill="#FFFFFF" points="31.2 12.5 30.3 12.5 30.3 12.1 30.3 12.1 30.3 12.2 30.2 12.2 30.2 12.3 30.1 12.3 30.1 12.4 30 12.4 29.9 12.4 29.9 12.5 29.8 12.5 29.7 12.5 29.7 12.5 29.6 12.5 29.5 12.6 29.5 12.6 29.4 12.6 29.3 12.6 29.2 12.5 29 12.5 28.9 12.5 28.7 12.4 28.6 12.3 28.5 12.2 28.4 12 28.3 11.9 28.2 11.7 28.2 11.6 28.2 11.4 28.1 11.2 28.1 11.1 28.1 10.9 28.1 10.7 28.2 10.6 28.2 10.4 28.3 10.2 28.4 10 28.4 9.8 28.5 9.7 28.6 9.5 28.7 9.4 28.8 9.3 29 9.2 29.1 9.1 29.2 9.1 29.3 9 29.5 9 29.6 8.9 29.7 8.9 29.9 8.9 30 8.9 30.1 8.9 30.2 8.9 30.2 9 30.3 9 30.4 9 30.5 9 30.5 9.1 30.6 9.1 30.6 9.2 30.7 9.2 30.7 9.3 30.7 9.3 30.8 9.3 30.8 9.4 30.8 9.4 30.8 9.4 31.1 8.1 32 8.1 31.2 12.5"></polygon>
                    <polyline id="Shape" stroke="#FFFFFF" stroke-width="0.216" points="31.2 12.5 30.3 12.5 30.3 12.1 30.3 12.1 30.3 12.1 30.3 12.2 30.2 12.2 30.2 12.3 30.1 12.3 30.1 12.4 30 12.4 29.9 12.4 29.9 12.5 29.8 12.5 29.7 12.5 29.7 12.5 29.6 12.5 29.5 12.6 29.5 12.6 29.4 12.6 29.3 12.6 29.3 12.6 29.2 12.5 29 12.5 28.9 12.5 28.7 12.4 28.6 12.3 28.5 12.2 28.4 12 28.3 11.9 28.2 11.7 28.2 11.6 28.2 11.4 28.1 11.2 28.1 11.1 28.1 10.9 28.1 10.7 28.2 10.6 28.2 10.6 28.2 10.4 28.3 10.2 28.4 10 28.4 9.8 28.5 9.7 28.6 9.5 28.7 9.4 28.8 9.3 29 9.2 29.1 9.1 29.2 9.1 29.3 9 29.5 9 29.6 8.9 29.7 8.9 29.9 8.9 29.9 8.9 30 8.9 30.1 8.9 30.2 8.9 30.2 9 30.3 9 30.4 9 30.5 9 30.5 9.1 30.6 9.1 30.6 9.2 30.7 9.2 30.7 9.3 30.7 9.3 30.8 9.3 30.8 9.4 30.8 9.4 30.8 9.4 31.1 8.1 32 8.1 31.2 12.5"></polyline>
                    <polygon id="Shape" fill="#FCB331" points="29.7 11.7 29.8 11.7 29.9 11.7 29.9 11.6 30 11.6 30.1 11.6 30.2 11.5 30.2 11.5 30.3 11.4 30.3 11.3 30.4 11.3 30.4 11.2 30.5 11.1 30.5 11 30.5 10.9 30.5 10.8 30.6 10.7 30.6 10.6 30.6 10.6 30.6 10.5 30.6 10.4 30.6 10.3 30.6 10.2 30.5 10.1 30.5 10 30.5 10 30.4 9.9 30.4 9.8 30.3 9.8 30.3 9.8 30.2 9.7 30.2 9.7 30.1 9.7 30 9.7 29.9 9.7 29.8 9.8 29.8 9.8 29.7 9.8 29.6 9.9 29.6 9.9 29.5 10 29.5 10.1 29.4 10.2 29.4 10.2 29.3 10.3 29.3 10.4 29.3 10.5 29.2 10.6 29.2 10.7 29.2 10.9 29.2 11 29.2 11.2 29.3 11.3 29.3 11.5 29.4 11.6 29.5 11.7 29.7 11.7"></polygon>
                    <polygon id="Shape" fill="#FFFFFF" points="9 11.8 8.8 12.5 8 12.5 8 12.4 8 12.2 8 12.2 8 12.1 8 12.2 7.9 12.2 7.9 12.3 7.8 12.3 7.7 12.4 7.6 12.4 7.6 12.4 7.5 12.5 7.4 12.5 7.3 12.5 7.2 12.5 7.1 12.6 7 12.6 6.9 12.6 6.8 12.6 6.7 12.5 6.6 12.5 6.5 12.5 6.4 12.4 6.3 12.4 6.2 12.3 6.1 12.3 6.1 12.2 6 12.1 6 12.1 6 12 5.9 11.9 5.9 11.8 5.9 11.8 5.9 11.7 5.9 11.6 5.9 11.5 5.9 11.4 5.9 11.3 6 11.2 6 11.1 6.1 10.9 6.1 10.8 6.2 10.8 6.3 10.7 6.4 10.6 6.4 10.5 6.5 10.5 6.6 10.4 6.8 10.4 6.9 10.3 7 10.3 7.1 10.3 7.1 10.3 7.1 10.3 7.1 10.3 7.2 10.3 7.2 10.3 7.3 10.2 7.3 10.2 7.4 10.2 7.4 10.2 7.5 10.2 7.6 10.2 7.6 10.2 7.7 10.2 7.7 10.2 7.8 10.2 7.8 10.2 7.9 10.2 8 10.2 8 10.2 8.1 10.2 8.2 10.2 8.2 10.2 8.2 10.2 8.3 10.2 8.3 10.2 8.3 10.1 8.3 10.1 8.3 10 8.3 9.9 8.3 9.9 8.2 9.8 8.2 9.7 8.1 9.7 8 9.7 8 9.7 7.9 9.6 7.8 9.6 7.7 9.6 7.6 9.6 7.5 9.6 7.3 9.6 7.2 9.7 7.1 9.7 7 9.7 6.9 9.7 6.8 9.7 6.7 9.7 6.7 9.7 6.6 9.8 6.5 9.8 6.5 9.8 6.4 9.8 6.7 9 6.7 9 6.8 9 6.9 8.9 7 8.9 7.1 8.9 7.2 8.9 7.2 8.9 7.3 8.9 7.4 8.9 7.5 8.9 7.6 8.9 7.7 8.9 7.8 8.9 8 8.9 8.1 8.9 8.2 8.9 8.3 8.9 8.4 8.9 8.5 8.9 8.6 8.9 8.7 9 8.8 9 8.9 9.1 9 9.1 9.1 9.2 9.2 9.3 9.2 9.4 9.3 9.5 9.3 9.6 9.3 9.7 9.3 9.8 9.3 10 9 11.8"></polygon>
                    <polyline id="Shape" stroke="#FFFFFF" stroke-width="0.216" points="9 11.8 8.8 12.5 8 12.5 8 12.5 8 12.4 8 12.2 8 12.2 8 12.1 8 12.1 8 12.2 7.9 12.2 7.9 12.3 7.8 12.3 7.7 12.4 7.6 12.4 7.6 12.4 7.5 12.5 7.4 12.5 7.3 12.5 7.2 12.5 7.1 12.6 7 12.6 6.9 12.6 6.8 12.6 6.7 12.5 6.7 12.5 6.6 12.5 6.5 12.5 6.4 12.4 6.3 12.4 6.2 12.3 6.1 12.3 6.1 12.2 6 12.1 6 12.1 6 12 5.9 11.9 5.9 11.8 5.9 11.8 5.9 11.7 5.9 11.6 5.9 11.5 5.9 11.5 5.9 11.4 5.9 11.3 6 11.2 6 11.1 6.1 10.9 6.1 10.8 6.2 10.8 6.3 10.7 6.4 10.6 6.4 10.5 6.5 10.5 6.6 10.4 6.8 10.4 6.9 10.3 7 10.3 7.1 10.3 7.1 10.3 7.1 10.3 7.1 10.3 7.1 10.3 7.2 10.3 7.2 10.3 7.3 10.2 7.3 10.2 7.4 10.2 7.4 10.2 7.5 10.2 7.6 10.2 7.6 10.2 7.7 10.2 7.7 10.2 7.8 10.2 7.8 10.2 7.8 10.2 7.9 10.2 8 10.2 8 10.2 8.1 10.2 8.2 10.2 8.2 10.2 8.2 10.2 8.3 10.2 8.3 10.2 8.3 10.2 8.3 10.1 8.3 10.1 8.3 10 8.3 10 8.3 9.9 8.3 9.9 8.2 9.8 8.2 9.7 8.1 9.7 8 9.7 8 9.7 7.9 9.6 7.9 9.6 7.8 9.6 7.7 9.6 7.6 9.6 7.5 9.6 7.3 9.6 7.2 9.7 7.1 9.7 7 9.7 6.9 9.7 6.8 9.7 6.7 9.7 6.7 9.7 6.6 9.8 6.5 9.8 6.5 9.8 6.4 9.8 6.7 9 6.7 9 6.7 9 6.8 9 6.9 8.9 7 8.9 7.1 8.9 7.2 8.9 7.2 8.9 7.3 8.9 7.4 8.9 7.5 8.9 7.6 8.9 7.7 8.9 7.8 8.9 8 8.9 8.1 8.9 8.2 8.9 8.2 8.9 8.3 8.9 8.4 8.9 8.5 8.9 8.6 8.9 8.7 9 8.8 9 8.9 9.1 9 9.1 9.1 9.2 9.2 9.3 9.2 9.4 9.3 9.5 9.3 9.6 9.3 9.7 9.3 9.8 9.3 10 9 11.8"></polyline>
                    <polygon id="Shape" fill="#ED1B2E" points="8.2 10.9 8.1 10.9 8.1 10.8 8.1 10.8 8.1 10.8 8 10.8 8 10.8 8 10.8 7.9 10.8 7.8 10.8 7.8 10.8 7.7 10.8 7.7 10.8 7.6 10.9 7.6 10.9 7.5 10.9 7.5 10.9 7.5 10.9 7.5 10.9 7.4 10.9 7.4 10.9 7.3 10.9 7.3 11 7.2 11 7.2 11 7.2 11.1 7.1 11.1 7.1 11.1 7 11.2 7 11.2 7 11.3 7 11.3 6.9 11.4 6.9 11.5 7 11.6 7 11.6 7 11.7 7.1 11.7 7.1 11.7 7.2 11.8 7.3 11.8 7.4 11.8 7.4 11.7 7.5 11.7 7.6 11.7 7.7 11.7 7.7 11.7 7.8 11.6 7.8 11.6 7.9 11.6 7.9 11.5 8 11.5 8 11.4 8 11.4 8 11.4 8.1 11.3 8.1 11.3 8.1 11.2 8.1 11.1 8.1 11 8.2 10.9"></polygon>
                    <polygon id="Shape" fill="#FFFFFF" points="1.9 12.5 1 12.5 1.7 8.1 3.3 8.1 3.5 10.7 4.6 8.1 6.2 8.1 5.5 12.5 4.5 12.5 5.1 9.2 5.1 9.2 3.7 12.5 2.7 12.5 2.7 12.4 2.6 12 2.6 11.5 2.6 10.9 2.5 10.3 2.5 9.7 2.5 9.4 2.5 9.2 2.5 9.2 2.4 9.2 2.4 9.2 2.4 9.2 1.9 12.5"></polygon>
                    <polyline id="Shape" stroke="#FFFFFF" stroke-width="0.216" points="1.9 12.5 1 12.5 1.7 8.1 3.3 8.1 3.5 10.7 4.6 8.1 6.2 8.1 5.5 12.5 4.5 12.5 5.1 9.2 5.1 9.2 3.7 12.5 2.7 12.5 2.7 12.5 2.7 12.4 2.6 12 2.6 11.5 2.6 10.9 2.5 10.3 2.5 9.7 2.5 9.4 2.5 9.2 2.5 9.2 2.5 9.2 2.4 9.2 2.4 9.2 2.4 9.2 1.9 12.5"></polyline>
                    <polygon id="Shape" fill="#FFFFFF" points="25.7 11.8 25.6 12.5 24.7 12.5 24.7 12.4 24.7 12.3 24.7 12.2 24.7 12.1 24.7 12.2 24.6 12.2 24.6 12.3 24.5 12.3 24.4 12.4 24.4 12.4 24.3 12.4 24.2 12.5 24.1 12.5 24 12.5 23.9 12.5 23.8 12.6 23.7 12.6 23.6 12.6 23.5 12.6 23.4 12.5 23.3 12.5 23.2 12.5 23.1 12.4 23 12.4 23 12.3 22.9 12.3 22.8 12.2 22.8 12.1 22.8 12.1 22.7 12 22.7 11.9 22.7 11.8 22.7 11.8 22.7 11.7 22.7 11.6 22.7 11.5 22.7 11.4 22.7 11.3 22.7 11.2 22.8 11.1 22.8 10.9 22.9 10.8 22.9 10.8 23 10.7 23.1 10.6 23.2 10.5 23.3 10.5 23.4 10.4 23.5 10.4 23.6 10.3 23.7 10.3 23.8 10.3 23.8 10.3 23.9 10.3 23.9 10.3 23.9 10.3 24 10.3 24 10.2 24.1 10.2 24.1 10.2 24.2 10.2 24.2 10.2 24.3 10.2 24.3 10.2 24.4 10.2 24.4 10.2 24.5 10.2 24.5 10.2 24.6 10.2 24.7 10.2 24.8 10.2 24.8 10.2 24.9 10.2 25 10.2 25 10.2 25 10.2 25 10.2 25 10.1 25 10.1 25 10 25 9.9 25 9.9 25 9.8 24.9 9.7 24.8 9.7 24.8 9.7 24.7 9.7 24.6 9.6 24.5 9.6 24.4 9.6 24.3 9.6 24.2 9.6 24.1 9.6 24 9.7 23.9 9.7 23.8 9.7 23.7 9.7 23.6 9.7 23.5 9.7 23.4 9.7 23.3 9.8 23.3 9.8 23.2 9.8 23.2 9.8 23.4 9 23.5 9 23.6 9 23.7 8.9 23.7 8.9 23.8 8.9 23.9 8.9 24 8.9 24.1 8.9 24.2 8.9 24.3 8.9 24.4 8.9 24.5 8.9 24.6 8.9 24.7 8.9 24.8 8.9 24.9 8.9 25 8.9 25.1 8.9 25.2 8.9 25.3 8.9 25.4 9 25.5 9 25.6 9.1 25.7 9.1 25.8 9.2 25.9 9.3 26 9.4 26 9.5 26.1 9.6 26.1 9.7 26.1 9.8 26.1 10 25.7 11.8"></polygon>
                    <polygon id="Shape" fill="#FFFFFF" points="25.6 12.5 25.6 12.5 25.7 11.8 25.7 11.8 25.5 12.5 25.6 12.5 25.6 12.5 25.6 12.5 25.6 12.5 25.6 12.5"></polygon>
                    <polygon id="Shape" fill="#FFFFFF" points="24.7 12.5 24.7 12.5 25.6 12.5 25.6 12.5 24.7 12.5 24.7 12.5 24.7 12.5 24.7 12.5 24.7 12.5 24.7 12.5"></polygon>
                    <polygon id="Shape" fill="#FFFFFF" points="24.8 12.1 24.7 12.1 24.7 12.2 24.7 12.3 24.7 12.4 24.7 12.5 24.7 12.5 24.7 12.4 24.8 12.3 24.8 12.2 24.8 12.1 24.7 12.1 24.8 12.1"></polygon>
                    <polygon id="Shape" fill="#FFFFFF" points="23.4 12.6 23.4 12.6 23.5 12.6 23.6 12.6 23.7 12.6 23.8 12.6 23.9 12.6 24 12.5 24.1 12.5 24.2 12.5 24.3 12.5 24.4 12.4 24.5 12.4 24.5 12.3 24.6 12.3 24.7 12.2 24.7 12.2 24.8 12.1 24.7 12.1 24.7 12.2 24.6 12.2 24.6 12.3 24.5 12.3 24.4 12.3 24.4 12.4 24.3 12.4 24.2 12.5 24.1 12.5 24 12.5 23.9 12.5 23.8 12.5 23.7 12.5 23.6 12.5 23.5 12.5 23.5 12.5 23.5 12.5 23.4 12.6"></polygon>
                    <polygon id="Shape" fill="#FFFFFF" points="22.6 11.5 22.6 11.5 22.6 11.6 22.6 11.7 22.6 11.8 22.7 11.9 22.7 11.9 22.7 12 22.7 12.1 22.8 12.2 22.8 12.2 22.9 12.3 22.9 12.3 23 12.4 23.1 12.5 23.2 12.5 23.3 12.5 23.4 12.6 23.5 12.5 23.3 12.5 23.2 12.5 23.1 12.4 23 12.4 23 12.3 22.9 12.3 22.9 12.2 22.8 12.1 22.8 12.1 22.7 12 22.7 11.9 22.7 11.8 22.7 11.8 22.7 11.7 22.7 11.6 22.7 11.5 22.7 11.5 22.6 11.5"></polygon>
                    <polygon id="Shape" fill="#FFFFFF" points="23.8 10.2 23.8 10.2 23.7 10.3 23.6 10.3 23.5 10.3 23.4 10.4 23.3 10.4 23.2 10.5 23.1 10.6 23 10.7 22.9 10.7 22.9 10.8 22.8 10.9 22.7 11 22.7 11.2 22.7 11.3 22.6 11.4 22.6 11.5 22.7 11.5 22.7 11.4 22.7 11.3 22.7 11.2 22.8 11.1 22.8 11 22.9 10.9 23 10.8 23 10.7 23.1 10.6 23.2 10.5 23.3 10.5 23.4 10.4 23.5 10.4 23.6 10.3 23.7 10.3 23.8 10.3 23.8 10.3 23.8 10.2"></polygon>
                    <polygon id="Shape" fill="#FFFFFF" points="24.5 10.2 24.5 10.2 24.5 10.2 24.4 10.2 24.4 10.2 24.3 10.2 24.3 10.2 24.2 10.2 24.2 10.2 24.1 10.2 24.1 10.2 24 10.2 24 10.2 23.9 10.2 23.9 10.2 23.9 10.2 23.8 10.2 23.8 10.2 23.8 10.3 23.8 10.3 23.9 10.3 23.9 10.3 23.9 10.3 24 10.3 24 10.3 24.1 10.3 24.1 10.3 24.2 10.2 24.2 10.2 24.3 10.2 24.3 10.2 24.4 10.2 24.4 10.2 24.5 10.2 24.5 10.2 24.5 10.2 24.5 10.2"></polygon>
                    <polygon id="Shape" fill="#FFFFFF" points="25 10.2 25 10.2 25 10.2 25 10.2 24.9 10.2 24.8 10.2 24.8 10.2 24.7 10.2 24.6 10.2 24.5 10.2 24.5 10.2 24.6 10.2 24.7 10.2 24.8 10.2 24.8 10.2 24.9 10.2 25 10.2 25 10.2 25 10.2 25 10.2 25 10.2 25 10.2 25 10.2 25 10.2"></polygon>
                    <polygon id="Shape" fill="#FFFFFF" points="25 10 25 10 25 10.1 25 10.1 25 10.2 25 10.2 25 10.2 25 10.2 25 10.1 25.1 10.1 25.1 10 25.1 10 25 10"></polygon>
                    <polygon id="Shape" fill="#FFFFFF" points="24.6 9.7 24.6 9.7 24.7 9.7 24.8 9.7 24.8 9.7 24.9 9.8 24.9 9.8 25 9.9 25 9.9 25 10 25.1 10 25 9.9 25 9.8 25 9.8 24.9 9.7 24.9 9.7 24.8 9.7 24.7 9.6 24.6 9.6 24.6 9.6 24.6 9.7"></polygon>
                    <polygon id="Shape" fill="#FFFFFF" points="23.2 9.8 23.2 9.8 23.2 9.8 23.3 9.8 23.3 9.8 23.4 9.8 23.5 9.7 23.6 9.7 23.7 9.7 23.8 9.7 23.9 9.7 24 9.7 24.1 9.7 24.2 9.7 24.3 9.7 24.4 9.7 24.5 9.7 24.6 9.7 24.6 9.6 24.5 9.6 24.4 9.6 24.3 9.6 24.2 9.6 24.1 9.6 24 9.6 23.9 9.6 23.8 9.7 23.7 9.7 23.6 9.7 23.5 9.7 23.4 9.7 23.3 9.7 23.3 9.8 23.2 9.8 23.2 9.8 23.2 9.8 23.2 9.8"></polygon>
                    <polygon id="Shape" fill="#FFFFFF" points="23.4 9 23.4 9 23.2 9.8 23.2 9.8 23.5 9 23.4 9 23.4 9 23.4 9 23.4 9 23.4 9"></polygon>
                    <polygon id="Shape" fill="#FFFFFF" points="24.9 8.8 24.9 8.8 24.8 8.8 24.7 8.8 24.6 8.8 24.5 8.8 24.4 8.8 24.3 8.8 24.2 8.8 24.1 8.8 24 8.9 23.9 8.9 23.8 8.9 23.7 8.9 23.7 8.9 23.6 8.9 23.5 9 23.4 9 23.4 9 23.5 9 23.6 9 23.7 9 23.7 8.9 23.8 8.9 23.9 8.9 24 8.9 24.1 8.9 24.2 8.9 24.3 8.9 24.4 8.9 24.5 8.9 24.6 8.9 24.7 8.9 24.8 8.9 24.9 8.9 24.9 8.9 24.9 8.8"></polygon>
                    <polygon id="Shape" fill="#FFFFFF" points="26.1 10 26.1 10 26.1 9.8 26.1 9.7 26.1 9.6 26 9.5 26 9.4 25.9 9.3 25.8 9.2 25.8 9.1 25.7 9.1 25.6 9 25.4 9 25.3 8.9 25.2 8.9 25.1 8.9 25 8.8 24.9 8.8 24.9 8.9 25 8.9 25.1 8.9 25.2 8.9 25.3 9 25.4 9 25.5 9 25.6 9.1 25.7 9.2 25.8 9.2 25.9 9.3 26 9.4 26 9.5 26 9.6 26.1 9.7 26.1 9.8 26 10 26 10 26.1 10"></polygon>
                    <polygon id="Shape" fill="#FFFFFF" points="25.7 11.8 25.7 11.8 26.1 10 26 10 25.7 11.8 25.7 11.8 25.7 11.8"></polygon>
                    <polygon id="Shape" fill="#FCB331" points="24.9 10.9 24.9 10.9 24.9 10.8 24.8 10.8 24.8 10.8 24.8 10.8 24.7 10.8 24.7 10.8 24.6 10.8 24.6 10.8 24.5 10.8 24.5 10.8 24.4 10.8 24.4 10.9 24.3 10.9 24.3 10.9 24.2 10.9 24.2 10.9 24.2 10.9 24.2 10.9 24.1 10.9 24.1 10.9 24 11 24 11 24 11 23.9 11 23.9 11.1 23.8 11.1 23.8 11.2 23.8 11.2 23.7 11.3 23.7 11.3 23.7 11.4 23.7 11.5 23.7 11.6 23.7 11.6 23.8 11.7 23.8 11.7 23.9 11.7 24 11.8 24 11.8 24.1 11.8 24.2 11.7 24.3 11.7 24.4 11.7 24.4 11.7 24.5 11.7 24.6 11.6 24.6 11.6 24.7 11.5 24.7 11.5 24.7 11.5 24.8 11.4 24.8 11.4 24.8 11.3 24.8 11.3 24.8 11.3 24.9 11.2 24.9 11.1 24.9 11 24.9 10.9"></polygon>
                    <polygon id="Shape" fill="#FFFFFF" points="31.8 12 31.8 12 31.9 11.9 31.9 11.8 32 11.7 32 11.7 32.1 11.6 32.2 11.6 32.3 11.6 32.4 11.6 32.5 11.6 32.6 11.7 32.6 11.7 32.7 11.8 32.8 11.9 32.8 12 32.8 12 32.7 12 32.7 12 32.7 11.9 32.6 11.8 32.6 11.8 32.5 11.7 32.5 11.7 32.4 11.7 32.3 11.7 32.2 11.7 32.2 11.7 32.1 11.7 32 11.8 32 11.8 32 11.9 31.9 12 31.9 12 31.8 12"></polygon>
                    <polygon id="Shape" fill="#FFFFFF" points="32.1 12 32.1 11.8 32.3 11.8 32.4 11.9 32.4 11.9 32.4 11.9 32.5 11.9 32.5 11.9 32.5 11.9 32.5 11.9 32.5 12 32.5 12 32.5 12 32.5 12 32.5 12 32.3 12 32.3 12 32.4 12 32.4 12 32.4 12 32.4 12 32.4 12 32.4 12 32.4 12 32.4 12 32.4 11.9 32.4 11.9 32.4 11.9 32.4 11.9 32.4 11.9 32.3 11.9 32.3 11.9 32.2 11.9 32.2 12 32.1 12"></polygon>
                    <polygon id="Shape" fill="#FFFFFF" points="31.8 12 31.8 12.1 31.8 12.2 31.9 12.3 31.9 12.3 32 12.4 32 12.5 32.1 12.5 32.2 12.5 32.3 12.5 32.4 12.5 32.5 12.5 32.6 12.5 32.6 12.4 32.7 12.3 32.8 12.3 32.8 12.2 32.8 12.1 32.8 12 32.7 12 32.7 12.1 32.7 12.2 32.7 12.2 32.6 12.3 32.6 12.3 32.5 12.4 32.5 12.4 32.4 12.5 32.3 12.5 32.2 12.5 32.2 12.4 32.1 12.4 32 12.3 32 12.3 32 12.2 31.9 12.2 31.9 12.1 31.9 12 31.8 12"></polygon>
                    <polygon id="Shape" fill="#FFFFFF" points="32.1 12 32.1 12.3 32.2 12.3 32.2 12.1 32.3 12.1 32.4 12.3 32.5 12.3 32.4 12.1 32.4 12.1 32.4 12.1 32.4 12.1 32.5 12.1 32.5 12 32.3 12 32.3 12.1 32.2 12.1 32.2 12 32.1 12"></polygon>
                    <path d="M31.8,12.1 L31.8,11.9 L31.8,11.8 L31.9,11.7 L32,11.6 L32.1,11.6 L32.2,11.6 L32.3,11.6 L32.4,11.6 L32.5,11.6 L32.6,11.6 L32.7,11.7 L32.8,11.8 L32.8,11.9 L32.8,12 L32.8,12.1 L32.8,12.2 L32.8,12.3 L32.8,12.4 L32.7,12.5 L32.6,12.6 L32.5,12.6 L32.4,12.6 L32.3,12.6 L32.2,12.6 L32.1,12.6 L32,12.6 L32,12.4 L31.9,12.3 L31.9,12.2 L31.8,12.1 M32.2,12.3 L32.1,11.9 L32.3,11.9 L32.4,12.1 L32.3,12.1 L32.2,11.9 L32.1,11.9 L32.1,12.3 M32.3,12.1 L32.4,12.1 L32.3,12.1 M32.3,12.5 L32.5,12.5 L32.6,12.5 L32.7,12.5 L32.7,12.4 L32.7,12.3 L32.7,12.2 L32.7,12.1 L32.7,12 L32.7,11.9 L32.7,11.8 L32.7,11.7 L32.6,11.7 L32.5,11.7 L32.4,11.7 L32.3,11.7 L32.2,11.7 L32.1,11.7 L32,11.7 L31.9,11.7 L31.9,11.8 L31.9,11.9 L31.9,12 L31.9,12.1 L31.9,12.2 L31.9,12.3 L31.9,12.4 L31.9,12.5 L32,12.5 L32.1,12.5 L32.3,12.5" id="Shape" stroke="#FFFFFF" stroke-width="0.216"></path>
                    <polygon id="Shape" fill="#FFFFFF" points="26 12.5 26.9 12.5 26.9 12.5 27.3 10.6 27.3 10.5 27.3 10.4 27.3 10.4 27.3 10.3 27.4 10.2 27.4 10.2 27.5 10.1 27.5 10 27.6 10 27.6 9.9 27.7 9.9 27.8 9.8 27.9 9.8 28 9.8 28.1 9.7 28.3 9.7 28.3 9.7 28.3 9.7 28.3 9.7 28.3 9.7 28.5 8.9 28.4 8.9 28.3 8.9 28.2 8.9 28.1 8.9 28.1 8.9 28 9 27.9 9 27.9 9.1 27.8 9.1 27.7 9.2 27.7 9.2 27.6 9.3 27.6 9.3 27.5 9.4 27.5 9.4 27.4 9.5 27.5 8.9 26.6 8.9 26 12.5 26 12.5"></polygon>
                    <polyline id="Shape" stroke="#FFFFFF" stroke-width="0.216" points="26 12.5 26.9 12.5 26.9 12.5 27.3 10.6 27.3 10.6 27.3 10.5 27.3 10.4 27.3 10.4 27.3 10.3 27.4 10.2 27.4 10.2 27.5 10.1 27.5 10 27.6 10 27.6 9.9 27.7 9.9 27.8 9.8 27.9 9.8 28 9.8 28.1 9.7 28.3 9.7 28.3 9.7 28.3 9.7 28.3 9.7 28.3 9.7 28.3 9.7 28.5 8.9 28.5 8.9 28.4 8.9 28.3 8.9 28.2 8.9 28.1 8.9 28.1 8.9 28 9 27.9 9 27.9 9.1 27.8 9.1 27.7 9.2 27.7 9.2 27.6 9.3 27.6 9.3 27.5 9.4 27.5 9.4 27.4 9.5 27.5 8.9 26.6 8.9 26 12.5 26 12.5"></polyline>
                    <polygon id="Shape" fill="#FFFFFF" points="17 12.5 18 12.5 18 12.5 18.3 10.6 18.3 10.5 18.4 10.4 18.4 10.4 18.4 10.3 18.4 10.2 18.5 10.2 18.5 10.1 18.5 10.1 18.6 10 18.7 10 18.7 9.9 18.8 9.9 18.9 9.8 19 9.8 19.1 9.8 19.3 9.8 19.3 9.8 19.3 9.8 19.3 9.8 19.3 9.8 19.3 9.8 19.3 9.8 19.4 9.8 19.4 9.8 19.4 9.8 19.4 9.8 19.4 9.7 19.4 9.6 19.4 9.5 19.4 9.4 19.5 9.3 19.5 9.3 19.5 9.2 19.6 9.1 19.6 9.1 19.6 9 19.7 9 19.7 8.9 19.7 8.9 19.7 8.9 19.7 8.9 19.7 8.9 19.7 8.9 19.7 8.9 19.6 8.9 19.6 8.9 19.6 8.9 19.6 8.9 19.5 8.9 19.4 8.9 19.3 8.9 19.2 8.9 19.1 8.9 19 9 19 9 18.9 9.1 18.9 9.1 18.8 9.1 18.8 9.2 18.7 9.3 18.7 9.3 18.6 9.4 18.6 9.4 18.5 9.5 18.6 8.9 17.7 8.9 17 12.5 17 12.5"></polygon>
                    <polyline id="Shape" stroke="#FFFFFF" stroke-width="0.216" points="17 12.5 18 12.5 18 12.5 18.3 10.6 18.3 10.6 18.3 10.5 18.4 10.4 18.4 10.4 18.4 10.3 18.4 10.2 18.5 10.2 18.5 10.1 18.5 10.1 18.6 10 18.7 10 18.7 9.9 18.8 9.9 18.9 9.8 19 9.8 19.1 9.8 19.3 9.8 19.3 9.8 19.3 9.8 19.3 9.8 19.3 9.8 19.3 9.8 19.3 9.8 19.3 9.8 19.4 9.8 19.4 9.8 19.4 9.8 19.4 9.8 19.4 9.8 19.4 9.7 19.4 9.6 19.4 9.5 19.4 9.4 19.5 9.3 19.5 9.3 19.5 9.3 19.5 9.2 19.6 9.1 19.6 9.1 19.6 9 19.7 9 19.7 8.9 19.7 8.9 19.7 8.9 19.7 8.9 19.7 8.9 19.7 8.9 19.7 8.9 19.7 8.9 19.6 8.9 19.6 8.9 19.6 8.9 19.6 8.9 19.6 8.9 19.5 8.9 19.4 8.9 19.3 8.9 19.2 8.9 19.1 8.9 19 9 19 9 18.9 9.1 18.9 9.1 18.8 9.1 18.8 9.2 18.7 9.3 18.7 9.3 18.6 9.4 18.6 9.4 18.5 9.5 18.6 8.9 17.7 8.9 17 12.5 17 12.5"></polyline>
                    <polygon id="Shape" fill="#FCB331" points="31.8 16.1 31.8 16 31.9 16 31.9 15.9 32 15.8 32 15.8 32.1 15.7 32.2 15.7 32.3 15.7 32.4 15.7 32.5 15.7 32.6 15.8 32.6 15.8 32.7 15.9 32.8 16 32.8 16 32.8 16.1 32.7 16.1 32.7 16 32.6 15.9 32.6 15.9 32.5 15.8 32.5 15.8 32.4 15.8 32.3 15.8 32.2 15.8 32.2 15.8 32.1 15.8 32 15.9 32 15.9 32 16 31.9 16.1 31.8 16.1"></polygon>
                    <polygon id="Shape" fill="#FCB331" points="32.1 16.1 32.1 15.9 32.3 15.9 32.4 15.9 32.4 15.9 32.4 16 32.5 16 32.5 16 32.5 16 32.5 16 32.5 16.1 32.4 16.1 32.4 16 32.4 16 32.4 16 32.4 16 32.4 16 32.4 16 32.4 16 32.3 16 32.3 16 32.2 16 32.2 16.1 32.1 16.1"></polygon>
                    <polygon id="Shape" fill="#FCB331" points="31.8 16.1 31.8 16.1 31.9 16.1 31.9 16.1 31.9 16.1 31.8 16.1"></polygon>
                    <polygon id="Shape" fill="#FCB331" points="32.1 16.1 32.1 16.1 32.2 16.1 32.2 16.1 32.3 16.1 32.3 16.1 32.4 16.1 32.4 16.1 32.4 16.1 32.4 16.1 32.4 16.1 32.4 16.1 32.4 16.1 32.5 16.1 32.5 16.1 32.5 16.1 32.5 16.1 32.5 16.1 32.5 16.1 32.1 16.1"></polygon>
                    <polygon id="Shape" fill="#FCB331" points="32.7 16.1 32.7 16.1 32.7 16.1 32.8 16.1 32.8 16.1 32.7 16.1"></polygon>
                    <polygon id="Shape" fill="#FCB331" points="31.8 16.1 31.8 16.1 31.8 16.2 31.9 16.3 31.9 16.4 32 16.5 32 16.5 32.1 16.6 32.2 16.6 32.3 16.6 32.4 16.6 32.5 16.6 32.6 16.5 32.6 16.5 32.7 16.4 32.8 16.3 32.8 16.2 32.8 16.1 32.8 16.1 32.7 16.1 32.7 16.1 32.7 16.2 32.7 16.3 32.6 16.4 32.6 16.4 32.5 16.5 32.5 16.5 32.4 16.5 32.3 16.5 32.2 16.5 32.2 16.5 32.1 16.5 32 16.4 32 16.4 32 16.3 31.9 16.2 31.9 16.1 31.9 16.1 31.8 16.1"></polygon>
                    <polygon id="Shape" fill="#FCB331" points="32.1 16.1 32.1 16.3 32.2 16.3 32.2 16.2 32.3 16.2 32.4 16.3 32.5 16.3 32.4 16.2 32.4 16.2 32.4 16.2 32.4 16.1 32.5 16.1 32.5 16.1 32.1 16.1"></polygon>
                </g>
            </g>
        </g>
    </g>
</svg>