<?xml version="1.0" encoding="UTF-8"?>
<svg width="200px" height="72px" viewBox="0 0 200 72" version="1.1" xmlns="http://www.w3.org/2000/svg" xmlns:xlink="http://www.w3.org/1999/xlink">
    <!-- Generator: Sketch 50.2 (55047) - http://www.bohemiancoding.com/sketch -->
    <title>Artboard</title>
    <desc>Created with Sketch.</desc>
    <defs></defs>
    <g id="Artboard" stroke="none" stroke-width="1" fill="none" fill-rule="evenodd">
        <g id="visa" transform="translate(2.000000, 4.000000)" fill-rule="nonzero">
            <polygon id="Shape" fill="#005397" points="68.463 59.15 78.239 1.764 93.888 1.764 84.094 59.15"></polygon>
            <path d="M140.834,3.177 C137.735,2.013 132.877,0.765 126.813,0.765 C111.357,0.765 100.47,8.548 100.374,19.704 C100.286,27.948 108.145,32.553 114.08,35.296 C120.171,38.11 122.219,39.903 122.192,42.416 C122.149,46.263 117.327,48.017 112.828,48.017 C106.57,48.017 103.244,47.151 98.107,45.007 L96.094,44.097 L93.897,56.944 C97.546,58.548 104.303,59.933 111.322,60.004 C127.768,60.004 138.436,52.311 138.558,40.395 C138.62,33.871 134.454,28.904 125.429,24.806 C119.961,22.15 116.609,20.379 116.644,17.691 C116.644,15.305 119.479,12.754 125.606,12.754 C130.717,12.673 134.427,13.789 137.307,14.953 L138.715,15.617 L140.834,3.177 Z" id="Shape" fill="#005397"></path>
            <path d="M180.945,1.818 L168.857,1.818 C165.111,1.818 162.31,2.84 160.666,6.577 L137.437,59.173 L153.865,59.173 C153.865,59.173 156.545,52.101 157.157,50.547 C158.95,50.547 174.905,50.573 177.19,50.573 C177.653,52.582 179.088,59.173 179.088,59.173 L193.608,59.173 L180.945,1.818 Z M161.654,38.811 C162.95,35.503 167.886,22.767 167.886,22.767 C167.799,22.92 169.172,19.444 169.959,17.288 L171.019,22.238 C171.019,22.238 174.011,35.938 174.643,38.812 L161.654,38.812 L161.654,38.811 Z" id="Shape" fill="#005397"></path>
            <path d="M55.344,1.805 L40.028,40.944 L38.391,32.991 C35.547,23.819 26.663,13.886 16.73,8.914 L30.733,59.107 L47.283,59.086 L71.911,1.806 L55.344,1.806 L55.344,1.805 Z" id="Shape" fill="#005397"></path>
            <path d="M25.823,1.77 L0.59,1.77 L0.398,2.962 C20.021,7.714 33.008,19.195 38.391,32.99 L32.913,6.614 C31.966,2.98 29.219,1.897 25.823,1.77 Z" id="Shape" fill="#E1A800"></path>
        </g>
    </g>
</svg>